# xmcd CD database file
#
# Track frame offsets:
#	150
#	18013
#	35821
#	57564
#	81355
#	107907
#	128351
#	152275
#	172059
#	192277
#	213242
#	232791
#	248636
#	268118
#	295173
#	318842
#
# Disc length: 4500 seconds
#
# Revision: 2
# Processed by: cddbd v1.5.2PL0 Copyright (c) Steve Scherf et al.
# Submitted via: CDex 1.70beta2
#
DISCID=d2119210
DTITLE=游鴻明 - 遊式情歌經典全記錄1993-2006
DYEAR=2006
DGENRE=Pop
TTITLE0=詩人的眼淚
TTITLE1=你連笑起來都不快樂
TTITLE2=尋你
TTITLE3=十三樓的新鞋
TTITLE4=愛一回傷一回
TTITLE5=愛我的人和我愛的人
TTITLE6=愛已到底
TTITLE7=狂悲狂喜
TTITLE8=若是我回頭來牽你的手
TTITLE9=台北寂寞部屋
TTITLE10=紅糖水
TTITLE11=談心
TTITLE12=孟婆湯
TTITLE13=樓下那個女人
TTITLE14=寫情書
TTITLE15=你說你比較習慣一個人
EXTD=YEAR: 2006
EXTT0=
EXTT1=
EXTT2=
EXTT3=
EXTT4=
EXTT5=
EXTT6=
EXTT7=
EXTT8=
EXTT9=
EXTT10=
EXTT11=
EXTT12=
EXTT13=
EXTT14=
EXTT15=
PLAYORDER=
